# xmcd CD database file
#
# Track frame offsets:
#	183
#	17783
#	36825
#	50645
#	67948
#	88460
#	108700
#	125920
#	142995
#	159810
#	184053
#	200600
#	213060
#	231758
#	245480
#	259503
#	277668
#	300005
#
# Disc length: 4251 seconds
#
# Revision: 1
# Processed by: cddbd v1.5.1PL0 Copyright (c) Steve Scherf et al.
# Submitted via: CDex 1.51
#
DISCID=f4109912
DTITLE=Various Artist - Gefühle - Vol.18 - Die schönsten romantischen Schlager
DYEAR=1900
DGENRE=Oldies
TTITLE0=Udo Lindenberg - Ich lieb' dich überhaupt nicht mehr
TTITLE1=Veronika Fischer - Ein Gefühl wie das Leben
TTITLE2=Die Flippers - Aber dich gibt's nur einmal für mich
TTITLE3=Nena - Du bist überall
TTITLE4=Stefan Waggershausen and Viktor Lazlo - Das erste Mal tat's noch weh
TTITLE5=Roy Black - Geträumt
TTITLE6=Flamingos - Ciao Ciao, Romina
TTITLE7=Claudia Jung - Atemlos
TTITLE8=Karel Gott - Nie mehr Bolero
TTITLE9=Klaus Lage - Wenn du Wärme brauchst
TTITLE10=G.G. Anderson - Ich glaube an die Zärtlichkeit
TTITLE11=Erik Silvester - Sehnsucht
TTITLE12=Juliane Werding - Starke Gefühle
TTITLE13=Andreas Martin - Herz an Herz
TTITLE14=Rex Gildo - Erinnerung an deine Zärtlichkeit
TTITLE15=Hanne Haller - Mein lieber Mann
TTITLE16=Michael Stein - Ich hab dich lieb
TTITLE17=Stephan Remmler - Vogel der Nacht
EXTD=
EXTT0=
EXTT1=
EXTT2=
EXTT3=
EXTT4=
EXTT5=
EXTT6=
EXTT7=
EXTT8=
EXTT9=
EXTT10=
EXTT11=
EXTT12=
EXTT13=
EXTT14=
EXTT15=
EXTT16=
EXTT17=
PLAYORDER=
